# xmcd CD database file
#
# Track frame offsets:
#	150
#	18262
#	32214
#	53485
#	73648
#	86186
#	104119
#	122079
#	140250
#	154754
#	172306
#
# Disc length: 2556 seconds
#
# Revision: 0
# Processed by: cddbd v1.5.1PL2 Copyright (c) Steve Scherf et al.
# Submitted via: CDex 1.51
#
DISCID=9909fa0b
DTITLE=Mugshot - Pause and Reflect
DYEAR=2006
DGENRE=Salsa
TTITLE0=Heart Vs. Mind
TTITLE1=A New Appreciation
TTITLE2=Eleven Eleven
TTITLE3=Are We Done
TTITLE4=Hostage
TTITLE5=Aftermath
TTITLE6=Ready When You Are
TTITLE7=Impossible (Isn't a Real Word)
TTITLE8=Wake Up Call
TTITLE9=Sweeter
TTITLE10=Resuscitate
EXTD=YEAR: 2006
EXTT0=
EXTT1=
EXTT2=
EXTT3=
EXTT4=
EXTT5=
EXTT6=
EXTT7=
EXTT8=
EXTT9=
EXTT10=
PLAYORDER=
